<svg width="45" height="45" viewBox="0 0 45 45" fill="none" xmlns="http://www.w3.org/2000/svg">
<g clip-path="url(#clip0_73_531)">
<path d="M6.44856 3.9164V6.49528H4.4036C3.68317 6.49528 3.26235 7.30774 3.67798 7.89617L8.16603 14.2502C8.51996 14.7514 9.26334 14.7514 9.61727 14.2502L14.1053 7.89617C14.521 7.30774 14.1001 6.49528 13.3797 6.49528H11.3347V3.9164C11.3347 2.24551 12.6941 0.886103 14.3651 0.886103C16.0361 0.886103 17.3953 2.24551 17.3953 3.9164V18.6198H22.2814V3.9164C22.2814 -0.448692 18.7301 -4 14.365 -4C9.99995 -4 6.44856 -0.448692 6.44856 3.9164Z" fill="#31A7FB"/>
<path d="M22.2812 3.91622V18.6195H19.5902V3.91622C19.5902 0.0101852 16.7463 -3.24484 13.0195 -3.88495C13.4569 -3.96106 13.9059 -4 14.365 -4C18.7301 -4 22.2812 -0.448867 22.2812 3.91622Z" fill="#1C96F9"/>
<path d="M37.1018 40.9999H11.8983C11.002 40.9999 10.2463 40.3316 10.1368 39.4419L7.90039 21.2754H41.0996L38.8633 39.4419C38.7538 40.3316 37.9981 40.9999 37.1018 40.9999Z" fill="#F82F40"/>
<path d="M7.90039 21.2759L8.29704 24.4971H20.9586C21.6136 24.4971 22.2281 24.8483 22.5303 25.4293C22.9001 26.1403 23.6433 26.6259 24.5 26.6259C25.3569 26.6259 26.1001 26.1403 26.4697 25.4293C26.7719 24.8483 27.3864 24.4971 28.0414 24.4971H34.5834C36.0457 24.4971 37.1779 25.7773 36.9992 27.2285L35.4957 39.4418C35.3857 40.3319 34.6306 41.0001 33.7342 41.0001H37.1019C37.9983 41.0001 38.7534 40.3319 38.8635 39.4418L41.0997 21.2759H7.90039Z" fill="#E22334"/>
<path d="M21.5391 36.8631C20.6651 36.9242 19.907 36.2652 19.8459 35.3912L19.377 28.6855C19.3159 27.8115 19.9748 27.0534 20.8489 26.9922C21.7229 26.9312 22.4809 27.5901 22.5421 28.4641L23.011 35.1699C23.0721 36.0438 22.4131 36.8019 21.5391 36.8631Z" fill="#F2EFF2"/>
<path d="M15.2273 36.8268C14.3596 36.9487 13.5574 36.3443 13.4355 35.4767L12.5 28.82C12.3781 27.9524 12.9825 27.1502 13.8502 27.0283C14.7178 26.9064 15.52 27.5108 15.6419 28.3785L16.5774 35.0351C16.6993 35.9027 16.0948 36.7049 15.2273 36.8268Z" fill="#F2EFF2"/>
<path d="M27.5403 36.8631C28.4143 36.9242 29.1723 36.2652 29.2335 35.3912L29.7024 28.6855C29.7635 27.8115 29.1046 27.0534 28.2305 26.9922C27.3565 26.9312 26.5984 27.5901 26.5373 28.4641L26.0684 35.1699C26.0074 36.0438 26.6663 36.8019 27.5403 36.8631Z" fill="#F2EFF2"/>
<path d="M33.8522 36.8268C34.7198 36.9487 35.522 36.3443 35.6439 35.4767L36.5794 28.82C36.7013 27.9523 36.0969 27.1502 35.2292 27.0283C34.3617 26.9064 33.5594 27.5108 33.4375 28.3784L32.502 35.0351C32.38 35.9027 32.9845 36.7049 33.8522 36.8268Z" fill="#F2EFF2"/>
<path d="M41.6887 22.279H7.31112C6.04664 22.279 5.02148 21.254 5.02148 19.9894C5.02148 18.7249 6.04655 17.6997 7.31112 17.6997H41.6887C42.9532 17.6997 43.9783 18.7248 43.9783 19.9894C43.9783 21.254 42.9532 22.279 41.6887 22.279Z" fill="#FCB982"/>
<path d="M43.9784 19.9891C43.9784 20.6218 43.7219 21.1933 43.3075 21.6077C42.894 22.0221 42.3208 22.2786 41.6889 22.2786H38.5352C39.167 22.2786 39.7402 22.0221 40.1538 21.6077C40.5682 21.1933 40.8246 20.6218 40.8246 19.9891C40.8246 18.7245 39.7996 17.6997 38.5352 17.6997H41.6889C42.9534 17.6997 43.9784 18.7246 43.9784 19.9891Z" fill="#FCA863"/>
<path d="M24.499 24.6497C23.2731 24.6497 22.2793 23.6559 22.2793 22.43V5.26802C22.2793 4.04212 23.2731 3.04834 24.499 3.04834C25.7249 3.04834 26.7186 4.04212 26.7186 5.26802V22.43C26.7186 23.6559 25.7249 24.6497 24.499 24.6497Z" fill="#FEE265"/>
<path d="M26.7185 5.26799V22.4303C26.7185 23.6558 25.7247 24.6497 24.4991 24.6497C24.1007 24.6497 23.7253 24.5441 23.4023 24.3595C24.0723 23.977 24.524 23.2564 24.524 22.4303V5.26799C24.524 4.65566 24.2755 4.10019 23.8735 3.69905C23.7342 3.55887 23.5754 3.43732 23.4023 3.33879C23.7253 3.15422 24.1007 3.04858 24.4991 3.04858C25.1115 3.04858 25.6669 3.29704 26.0681 3.69905C26.4701 4.1001 26.7185 4.65566 26.7185 5.26799Z" fill="#FDD330"/>
<path d="M42.5517 8.4435V17.3604H44.5966C45.317 17.3604 45.7379 18.1729 45.3223 18.7613L40.8342 25.1153C40.4803 25.6165 39.7368 25.6165 39.3829 25.1153L34.8949 18.7613C34.4793 18.1729 34.9001 17.3604 35.6206 17.3604H37.6655V8.4435C37.6655 6.77261 36.3061 5.4132 34.6351 5.4132C32.9642 5.4132 31.6047 6.77261 31.6047 8.4435V17.6995H26.7188V8.4435C26.7188 4.07832 30.2701 0.5271 34.6351 0.5271C39.0002 0.5271 42.5517 4.07841 42.5517 8.4435Z" fill="#5169CD"/>
<path d="M45.323 18.7618L40.8348 25.1152C40.4808 25.6168 39.7384 25.6168 39.3843 25.1152L38.8835 24.4063L42.8702 18.7618C43.2857 18.1733 42.8657 17.3603 42.1449 17.3603H41.005C40.5049 17.3603 40.0995 16.9549 40.0995 16.4548V8.44354C40.0995 4.49584 37.1949 1.21365 33.4102 0.622414C33.9034 0.545421 34.4104 0.513781 34.9278 0.532677C39.201 0.68842 42.5523 4.26996 42.5523 8.5461V17.3602H44.5977C45.3176 17.3602 45.7386 18.1732 45.323 18.7618Z" fill="#3351C5"/>
</g>
<defs>
<clipPath id="clip0_73_531">
<rect width="45" height="45" fill="white"/>
</clipPath>
</defs>
</svg>
