<svg width="45" height="45" viewBox="0 0 45 45" fill="none" xmlns="http://www.w3.org/2000/svg">
<g clip-path="url(#clip0_73_455)">
<path d="M42.2818 12.8415L34.1602 4.70435V37.3122H45.0293V19.4484C45.0293 16.968 44.0402 14.5901 42.2818 12.8415Z" fill="#FFB782"/>
<path d="M6.34814 31.3707L0.208314 15.4316C-0.407926 13.8316 0.389264 12.0343 1.99018 11.4177L30.9701 0.254945C32.5701 -0.361296 34.3675 0.435895 34.9837 2.03681L41.1235 17.9759C41.7398 19.5759 40.9426 21.3733 39.3417 21.9898L10.3626 33.1525C8.7617 33.7688 6.96527 32.9707 6.34814 31.3707Z" fill="#DE4C3C"/>
<path d="M37.1967 7.77856L2.44922 21.2473L4.76294 27.2534L39.5119 13.7909L37.1967 7.77856Z" fill="#7A4930"/>
<path d="M0 20.2318V3.15146C0 1.43645 1.39055 0.0458984 3.10557 0.0458984H34.1606C35.8757 0.0458984 37.2662 1.43645 37.2662 3.15146V20.2318C37.2662 21.9468 35.8757 23.3374 34.1606 23.3374H3.10557C1.39055 23.3374 0 21.9468 0 20.2318Z" fill="#4398D1"/>
<path d="M34.1614 0.0458984H30.8618L7.57031 23.3374H34.1614C35.8764 23.3374 37.2669 21.9468 37.2669 20.2318V3.15146C37.2669 1.43645 35.8764 0.0458984 34.1614 0.0458984Z" fill="#3E8CC7"/>
<path d="M3.10547 12.4678H6.21104V14.0206H3.10547V12.4678Z" fill="#5EB3D1"/>
<path d="M3.10547 17.1262H6.21104V18.6789H3.10547V17.1262Z" fill="#5EB3D1"/>
<path d="M17.0801 17.1262H20.1856V18.6789H17.0801V17.1262Z" fill="#5EB3D1"/>
<path d="M7.76367 12.4678H10.8689V14.0206H7.76367V12.4678Z" fill="#5EB3D1"/>
<path d="M12.4219 12.4678H15.5274V14.0206H12.4219V12.4678Z" fill="#5EB3D1"/>
<path d="M17.0801 12.4678H20.1856V14.0206H17.0801V12.4678Z" fill="#5EB3D1"/>
<path d="M31.832 3.15137H33.3848V5.48054H31.832V3.15137Z" fill="#5EB3D1"/>
<path d="M28.7266 3.15137H30.2793V5.48054H28.7266V3.15137Z" fill="#5EB3D1"/>
<path d="M25.6211 3.15137H27.1739V5.48054H25.6211V3.15137Z" fill="#5EB3D1"/>
<path d="M22.5156 3.15137H24.0681V5.48054H22.5156V3.15137Z" fill="#5EB3D1"/>
<path d="M31.0547 37.312H45.0294V45.0756H31.0547V37.312Z" fill="#88B337"/>
<path d="M28.7765 14.0711C27.4596 12.759 25.3286 12.7629 24.0165 14.0797C22.7478 15.3529 22.7038 17.3986 23.9164 18.7256L30.2787 25.6665C28.3664 29.0133 28.4481 33.1404 30.4906 36.4091L31.0551 37.312H41.1479V26.4429L28.7765 14.0711Z" fill="#FFB782"/>
<path d="M33.3848 39.6414H34.9376V41.1942H33.3848V39.6414Z" fill="#6B962A"/>
<path d="M3.10547 8.12022V4.39365C3.10547 3.70729 3.66139 3.15137 4.34775 3.15137H8.07432C8.76068 3.15137 9.31631 3.70729 9.31631 4.39365V8.12022C9.31631 8.80658 8.76068 9.3625 8.07432 9.3625H4.34775C3.66139 9.3625 3.10547 8.80658 3.10547 8.12022Z" fill="#FDB62F"/>
<path d="M3.10547 5.48071H5.43464V7.0335H3.10547V5.48071Z" fill="#FD7B2F"/>
<path d="M6.98828 5.48071H9.31716V7.0335H6.98828V5.48071Z" fill="#FD7B2F"/>
<path d="M40.3723 26.443C40.1667 26.443 39.9688 26.3612 39.8235 26.2154L36.718 23.1098C36.4199 22.8017 36.4286 22.3102 36.7376 22.0119C37.0388 21.7216 37.5154 21.7216 37.8158 22.0119L40.9214 25.1175C41.2242 25.4211 41.2242 25.9126 40.9214 26.2154C40.7752 26.3612 40.5782 26.443 40.3723 26.443Z" fill="#F2A46F"/>
</g>
<defs>
<clipPath id="clip0_73_455">
<rect width="45" height="45" fill="white"/>
</clipPath>
</defs>
</svg>
