<svg viewBox="0 0 102 28" fill="none" xmlns="http://www.w3.org/2000/svg">
<path d="M56.2282 14.7462C57.0642 5.81416 52.5321 1.32616 45.2721 1.32616C38.2321 1.32616 33.7441 6.07816 33.7441 12.6782C33.7441 19.6302 38.1881 24.2502 45.6681 24.2502C48.9681 24.2502 52.7081 23.1062 54.9962 20.7302L51.5641 17.3422C50.3321 18.6182 47.7361 19.3662 45.7561 19.3662C41.9721 19.3662 39.6401 17.4302 39.2881 14.7462H56.2282ZM39.3761 10.3022C40.1681 7.48616 42.5441 6.07816 45.4481 6.07816C48.5281 6.07816 50.7281 7.48616 51.0801 10.3022H39.3761ZM58.3845 1.98616V23.6782H63.7525V12.2382C63.7525 8.23416 66.3485 6.73816 69.1645 6.73816C70.9245 6.73816 71.9365 7.22216 73.0365 8.14616L75.4565 3.48216C74.2685 2.29416 72.1125 1.41416 69.8685 1.41416C67.6685 1.41416 65.4245 1.81016 63.7525 4.49416L63.3565 1.98616H58.3845ZM92.5106 4.97816C91.2786 2.82216 88.5066 1.45816 85.6026 1.45816C79.2666 1.41416 74.2946 5.33016 74.2946 12.8102C74.2946 20.4222 79.0466 24.3822 85.4706 24.3382C87.8906 24.2942 91.2786 23.0622 92.5106 20.5102L92.7746 23.6782H97.8346V1.98616H92.6866L92.5106 4.97816ZM86.0866 6.25416C94.5346 6.25416 94.5346 19.4102 86.0866 19.4102C82.5226 19.4102 79.6626 16.9462 79.6626 12.8102C79.6626 8.67416 82.5226 6.25416 86.0866 6.25416Z" fill="white"/>
<path d="M4.063 0L0.393015 10.463L15.8645 6.00599L0 28L28.3248 0H4.063Z" fill="url(#paint0_linear_116_73)"/>
<path d="M28.4851 28L32.1551 17.5371L16.6835 21.994L32.5481 0L4.21777 28H28.4851Z" fill="url(#paint1_linear_116_73)"/>
<defs>
<linearGradient id="paint0_linear_116_73" x1="0.682525" y1="-3.83229e-06" x2="41.137" y2="4.21501" gradientUnits="userSpaceOnUse">
<stop stop-color="#5956E9"/>
<stop offset="1" stop-color="#3734B4"/>
</linearGradient>
<linearGradient id="paint1_linear_116_73" x1="4.90043" y1="-3.83229e-06" x2="45.3626" y2="4.21664" gradientUnits="userSpaceOnUse">
<stop stop-color="#5956E9"/>
<stop offset="1" stop-color="#3734B4"/>
</linearGradient>
</defs>
</svg>
